<svg id="Capa_1" enable-background="new 0 0 512 512" height="512" viewBox="0 0 512 512" width="512" xmlns="http://www.w3.org/2000/svg"><g><path d="m0 256c0-141.218 114.346-255.73 255.501-255.999 140.686-.268 255.893 114.192 256.496 254.877.397 92.672-48.448 173.965-121.874 219.217-4.383 2.701-9.704 3.36-14.622 1.837-23.966-7.423-49.437-11.421-75.842-11.421-43.854 0-85.132 11.027-121.214 30.46-3.743 2.016-8.172 2.362-12.154.872-97.137-36.35-166.291-130.021-166.291-239.843z" fill="#ffb52d"/><path d="m447 230c0 110.457-89.543 200-200 200s-200-89.543-200-200 89.543-200 200-200 200 89.543 200 200z" fill="#ffc14f"/><path d="m333.358 500.104c-12.652 4.006-26.323 3.521-38.658-1.376-16.561-6.574-31.552-15.304-43.89-25.605l-1.428-.372-6.754-6.632c-19.768-19.412-62.107-30.436-88.831-23.129l-19.285-63.041c16.192-19.945 51.028-25.315 80.16-17.73 25.331 6.595 52.445 31.711 70.092 46.444l1.428.372 6.754 6.632c19.768 19.411 59.12 18.215 85.843 10.908l12.577 46.751c-17.968 11.213-37.425 20.261-58.008 26.778z" fill="#498d2d"/><path d="m365.375 210.115v80c0 19.956-5.043 37.182-19.623 45.201-6.653 3.659-10.609 10.831-10.609 18.424v145.792c-24.922 8.093-51.522 12.468-79.143 12.468-31.996 0-62.621-5.87-90.856-16.591v-136.797c0-11.844-5.667-22.971-15.247-29.936-15.001-10.907-24.753-28.595-24.753-48.561v-70c0-11.046 8.954-20 20-20h200.231c11.046 0 20 8.954 20 20z" fill="#a65d4e"/><path d="m247.111 288.668c11.713 16.364 18.164 38.009 18.164 60.947 0 4.142-3.358 7.5-7.5 7.5s-7.5-3.358-7.5-7.5c0-39.977-22.323-72.5-49.763-72.5-4.142 0-7.5-3.358-7.5-7.5s3.358-7.5 7.5-7.5c17.794 0 34.343 9.43 46.599 26.553zm98.264-98.553h-69.824l11.64-167.981c.785-11.018-7.51-20.586-18.527-21.371l-9.975-.711c-11.018-.785-20.586 7.51-21.371 18.528l-11.536 166.53c-.201 2.821-2.548 5.006-5.376 5.006-2.665 0-4.93-1.948-5.329-4.583l-13.457-88.985s0-.001 0-.002l-10.467-69.213c-1.652-10.922-11.844-18.437-22.766-16.785l-9.887 1.495c-10.922 1.651-18.436 11.844-16.785 22.766l10.467 69.213c0 .002.001.005.001.007l13.001 85.971h-20.04c-11.046 0-20 8.954-20 20v70c0 19.593 9.392 36.993 23.919 47.943 10.28 7.749 16.081 20.075 16.081 32.949v134.517c15.92 6.045 32.6 10.547 49.856 13.325v-140.281c0-16.453-6.841-32.317-19.275-43.092-12.695-11.002-20.725-27.243-20.725-45.361v-16.098c0-21.485 17.417-38.902 38.902-38.902 16.824 0 32.267 9.312 40.119 24.191 7.852 14.88 23.295 24.191 40.119 24.191h7.967c34.942 0 63.268-28.326 63.268-63.268 0-11.045-8.954-19.999-20-19.999z" fill="#915041"/><path d="m191.153 27.333 10.467 69.213v.002l9.886 65.374-7.272 1.1c-10.922 1.651-21.114-5.863-22.766-16.785l-17.282-114.286c-1.365-9.028 3.533-17.558 11.441-21.177 7.873 1.713 14.25 8.119 15.526 16.559zm71.491 149.344c7.601.542 14.198-5.189 14.725-12.791l9.822-141.752c.689-9.662-5.607-18.21-14.597-20.696-6.871 2.765-11.932 9.256-12.494 17.141l-10.22 143.374c-.541 7.591 5.173 14.183 12.764 14.724z" fill="#a65d4e"/><path d="m239.394 165.435c0 16.568-13.431 30-30 30h-29.25c-2.761 0-5 2.239-5 5v25c0 11.046-8.954 20-20 20-16.569 0-30-13.431-30-30v-5.319l1.856-44.681c0-6.747 4.882-11.812 10-15.434 3.261-2.308 85.05-4.433 86.319-4.181 9.166 1.824 16.075 9.912 16.075 19.615zm124.802-24.118-9.659-2.588c-10.669-2.859-21.636 3.473-24.495 14.142 2.859-10.67-3.473-21.636-14.142-24.495l-9.659-2.588c-10.669-2.859-21.636 3.473-24.495 14.142l-19.52 72.849c-2.859 10.67 3.473 21.636 14.142 24.495l9.659 2.588c10.669 2.859 21.636-3.473 24.495-14.142l3.229-12.051c-2.859 10.67 3.473 21.636 14.142 24.495l9.659 2.588c10.669 2.859 21.636-3.473 24.495-14.142l16.291-60.798c2.859-10.669-3.472-21.636-14.142-24.495z" fill="#a65d4e"/><path d="m203.554 145.435c7.987 0 12.776 9.07 8.087 15.537-5.451 7.518-14.306 12.408-24.302 12.408h-24.25c-5.523 0-10 4.477-10 10v25.478c0 7.717-6.256 13.972-13.972 13.972-7.717 0-13.972-6.256-13.972-13.972v-43.423c0-11.046 8.954-20 20-20zm166.262-1.644c-8.471.389-16.088 6.18-18.4 14.807l-16.291 60.798c-2.312 8.627 1.386 17.449 8.527 22.021 8.471-.389 16.084-6.18 18.395-14.807l16.291-60.798c2.312-8.627-1.381-17.449-8.522-22.021zm-39.774 9.08-19.52 72.849c-2.312 8.627-9.925 14.418-18.395 14.807-7.141-4.572-10.839-13.394-8.527-22.021l19.52-72.849c2.312-8.627 9.925-14.418 18.395-14.807 7.141 4.572 10.839 13.394 8.527 22.021z" fill="#b46e5a"/><path d="m198.394 161.442v-12.016c0-2.205 1.787-3.992 3.992-3.992h19.521c3.858 0 6.986 3.128 6.986 6.986v.039c0 7.166-5.809 12.975-12.975 12.975h-13.533c-2.204 0-3.991-1.787-3.991-3.992zm101.651 39.492-16.144-4.465c-2.129-.589-4.333.66-4.921 2.789l-3.765 13.614c-1.822 6.587 2.041 13.404 8.629 15.226 6.587 1.822 13.404-2.041 15.226-8.629l3.765-13.614c.587-2.128-.661-4.332-2.79-4.921zm51.317 1.659-16.144-4.465c-2.129-.589-4.333.66-4.921 2.789l-3.765 13.614c-1.822 6.587 2.041 13.404 8.629 15.226 6.587 1.822 13.404-2.041 15.226-8.629l3.765-13.614c.588-2.128-.661-4.332-2.79-4.921z" fill="#e0aea2"/><path d="m287.958 441.453-11.628 4.716c-24.967 9.811-55.266 15.145-86.701 15.145-11.107 0-22.072-.666-32.71-1.959-34.177-4.157-52.612-35.643-35.402-60.579l12.993-18.826c28.847 13.805 81.39 13.805 110.237 0l11.628-4.716c24.968-9.812 60.431 52.414 31.583 66.219z" fill="#5ca33b"/><path d="m428.83 371.766c-17.413 23.217-28.605 50.499-32.513 79.256l-.006.047c-28.847-13.804-79.504-23.42-108.352-9.616l-11.628 4.716c-3.721 1.462-7.56 2.825-11.503 4.085-23.515 7.515-47.572-9.863-47.572-34.55 0-14.828 8.986-28.239 22.772-33.7 1.634-.647 3.21-1.332 4.721-2.055l11.628-4.716c24.967-9.812 55.266-18.118 86.701-18.118 36.151 0 58.988 1.844 85.752 14.651z" fill="#6dc54a"/></g></svg>