<svg id="Layer_1" enable-background="new 0 0 256 256" height="512" viewBox="0 0 256 256" width="512" xmlns="http://www.w3.org/2000/svg"><path d="m240 235.066h-224c-4.418 0-8-3.582-8-8v-74c0-4.418 3.582-8 8-8h224c4.418 0 8 3.582 8 8v74c0 4.418-3.582 8-8 8z" fill="#4671c6"/><path d="m20 219.065v-58c0-2.209 1.791-4 4-4h208c2.209 0 4 1.791 4 4v58c0 2.209-1.791 4-4 4h-208c-2.209 0-4-1.79-4-4z" fill="#f9a7a7"/><path d="m63.839 169.83c-2.999-1.696-6.624-2.557-10.774-2.557-3.058 0-5.833.487-8.249 1.449-2.435.968-4.533 2.388-6.234 4.219-1.697 1.826-3.008 4.063-3.898 6.651-.882 2.565-1.329 5.417-1.329 8.476 0 2.985.428 5.806 1.272 8.384.853 2.607 2.136 4.872 3.813 6.733 1.684 1.869 3.809 3.335 6.315 4.358 2.489 1.016 5.339 1.531 8.469 1.531 3.144 0 5.983-.501 8.438-1.49 2.473-.997 4.59-2.459 6.292-4.346 1.693-1.878 2.98-4.125 3.825-6.678.836-2.527 1.26-5.367 1.26-8.44 0-4.167-.777-7.858-2.31-10.969-1.551-3.149-3.869-5.612-6.89-7.321zm-17.837 28.084c-.932-1.079-1.667-2.466-2.183-4.125-.527-1.69-.795-3.615-.795-5.722 0-2.087.267-3.989.794-5.652.518-1.637 1.227-2.992 2.11-4.027.871-1.024 1.926-1.815 3.134-2.351 1.214-.539 2.561-.812 4.003-.812 2.03 0 3.848.494 5.403 1.469 1.545.969 2.756 2.43 3.599 4.341.865 1.962 1.303 4.328 1.303 7.033 0 2.924-.475 5.408-1.411 7.381-.918 1.933-2.158 3.375-3.685 4.287-1.542.92-3.259 1.387-5.103 1.387-1.441 0-2.779-.269-3.977-.8-1.193-.528-2.266-1.339-3.192-2.409z" fill="#e0ebfc"/><path d="m107.805 167.273c-1.348 0-2.443.478-3.254 1.422-.777.905-1.171 2.227-1.171 3.928v20.215l-13.522-20.46c-.425-.672-.835-1.317-1.233-1.936-.425-.66-.852-1.213-1.272-1.643-.452-.462-.984-.834-1.579-1.106-.612-.279-1.341-.42-2.166-.42-1.062 0-2.064.3-2.977.891-.92.595-1.589 1.379-1.998 2.35-.324.831-.482 1.91-.482 3.299v29.909c0 1.669.409 2.984 1.216 3.907.837.958 1.952 1.443 3.315 1.443 1.321 0 2.424-.477 3.278-1.418.831-.917 1.252-2.24 1.252-3.932v-19.84l13.17 20.191c.426.622.853 1.23 1.279 1.825.458.64.963 1.208 1.501 1.687.574.513 1.202.894 1.867 1.132.655.235 1.393.355 2.192.355 2.321 0 5.087-1.034 5.087-5.959v-30.49c0-1.703-.4-3.026-1.189-3.933-.818-.94-1.934-1.417-3.314-1.417z" fill="#e0ebfc"/><path d="m156.257 175.149c-.479-1.26-.875-2.268-1.186-3.023-.33-.801-.742-1.562-1.224-2.262-.522-.756-1.213-1.382-2.054-1.858-.858-.486-1.92-.732-3.159-.732-1.22 0-2.274.246-3.131.732-.846.479-1.54 1.116-2.06 1.894-.483.72-.94 1.625-1.356 2.69l-1.017 2.603-9.915 25.169c-.41 1.014-.711 1.827-.895 2.419-.201.646-.304 1.283-.304 1.894 0 1.156.472 2.191 1.402 3.079.92.876 1.999 1.32 3.208 1.32 1.44 0 2.515-.457 3.196-1.359.567-.752 1.211-2.107 1.969-4.143l1.644-4.415h14.577l1.65 4.336c.248.605.546 1.303.893 2.094.377.86.729 1.493 1.078 1.933.377.477.847.858 1.399 1.134.559.279 1.221.421 1.969.421 1.287 0 2.403-.463 3.316-1.375.912-.912 1.374-1.948 1.374-3.077 0-.987-.411-2.452-1.253-4.473zm-12.198 16.4 4.531-12.632 4.614 12.632z" fill="#e0ebfc"/><path d="m176.746 167.273c-1.391 0-2.547.494-3.435 1.469-.868.952-1.307 2.347-1.307 4.146v30.544c0 1.8.445 3.2 1.32 4.159.896.984 2.048 1.483 3.422 1.483 1.424 0 2.6-.493 3.498-1.466.879-.953 1.324-2.358 1.324-4.176v-30.544c0-1.82-.447-3.222-1.328-4.166-.897-.962-2.072-1.449-3.494-1.449z" fill="#e0ebfc"/><path d="m221.656 202.027c-.569-1.345-1.372-2.869-2.385-4.528-1.018-1.667-2.191-3.259-3.485-4.733-.813-.926-1.661-1.722-2.535-2.381 2.539-.785 4.532-1.933 5.94-3.423 1.778-1.885 2.679-4.413 2.679-7.515 0-1.508-.264-2.959-.785-4.314-.525-1.364-1.305-2.579-2.317-3.611-1.01-1.029-2.19-1.831-3.482-2.374-1.081-.493-2.305-.823-3.638-.983-1.281-.154-2.836-.231-4.624-.231h-12.773c-1.92 0-3.36.467-4.28 1.387-.921.921-1.388 2.36-1.388 4.28v29.83c0 1.77.415 3.157 1.234 4.123.854 1.008 2.052 1.519 3.561 1.519 1.405 0 2.568-.483 3.455-1.435.872-.935 1.314-2.35 1.314-4.206v-11.601h1.895c1.276 0 2.334.166 3.144.493.788.318 1.592.936 2.39 1.836.852.962 1.838 2.394 2.936 4.264l3.146 5.235c.763 1.271 1.347 2.202 1.785 2.844.489.719 1.084 1.324 1.768 1.796.742.513 1.654.773 2.708.773.873 0 1.663-.179 2.349-.531.695-.359 1.253-.858 1.66-1.485.416-.641.627-1.309.627-1.986.002-.391-.092-1.132-.899-3.043zm-23.508-26.486h6.391c3.2 0 4.533.28 5.091.515.82.343 1.439.841 1.893 1.524.455.683.677 1.457.677 2.368 0 1.157-.273 2.059-.811 2.68-.559.646-1.404 1.116-2.512 1.396-1.21.307-2.741.463-4.549.463h-6.18z" fill="#e0ebfc"/><path d="m142.34 83.5h-28.68c-17.077 0-30.921 13.844-30.921 30.921v14.767h90.521v-14.767c.001-17.077-13.843-30.921-30.92-30.921z" fill="#f9a7a7"/><g fill="#f9cfcf"><path d="m128 70.934c-3.038 0-5.5-2.462-5.5-5.5v-39c0-3.038 2.462-5.5 5.5-5.5 3.038 0 5.5 2.462 5.5 5.5v39c0 3.038-2.462 5.5-5.5 5.5z"/><path d="m98.375 72.934c-2.631 1.519-5.994.617-7.513-2.013l-19.5-33.775c-1.519-2.631-.617-5.994 2.013-7.513 2.631-1.519 5.994-.617 7.513 2.013l19.5 33.775c1.518 2.631.617 5.995-2.013 7.513z"/><path d="m157.625 72.934c2.631 1.519 5.994.617 7.513-2.013l19.5-33.775c1.519-2.631.617-5.994-2.013-7.513-2.631-1.519-5.994-.617-7.513 2.013l-19.5 33.775c-1.518 2.631-.617 5.995 2.013 7.513z"/><path d="m181.349 88.184c1.519 2.631 4.883 3.532 7.513 2.013l33.775-19.5c2.631-1.519 3.532-4.883 2.013-7.513-1.519-2.631-4.883-3.532-7.513-2.013l-33.775 19.5c-2.63 1.518-3.531 4.882-2.013 7.513z"/><path d="m74.651 88.184c-1.519 2.631-4.883 3.532-7.513 2.013l-33.775-19.5c-2.631-1.519-3.532-4.883-2.013-7.513 1.519-2.631 4.883-3.532 7.513-2.013l33.775 19.5c2.63 1.518 3.531 4.882 2.013 7.513z"/><path d="m151.102 129.188h-46.204v-6.819c0-11.026 8.939-19.965 19.965-19.965h6.274c11.026 0 19.965 8.939 19.965 19.965z"/></g><path d="m178 145.065v-11.877c0-2.209-1.791-4-4-4h-92c-2.209 0-4 1.791-4 4v11.877z" fill="#6bdddd"/><path d="m240 237.065h-224c-5.514 0-10-4.486-10-10v-74c0-5.514 4.486-10 10-10h224c5.514 0 10 4.486 10 10v74c0 5.515-4.486 10-10 10zm-224-90c-3.309 0-6 2.691-6 6v74c0 3.309 2.691 6 6 6h224c3.309 0 6-2.691 6-6v-74c0-3.309-2.691-6-6-6z" fill="#3762cc"/><path d="m173.261 131.188h-90.522c-1.104 0-2-.896-2-2v-14.767c0-18.153 14.768-32.921 32.921-32.921h28.68c18.153 0 32.921 14.768 32.921 32.921v14.767c0 1.104-.896 2-2 2zm-88.522-4h86.521v-12.767c0-15.947-12.974-28.921-28.921-28.921h-28.68c-15.947 0-28.921 12.974-28.921 28.921v12.767z" fill="#3762cc"/><path d="m178 147.065h-100c-1.104 0-2-.896-2-2v-11.877c0-3.309 2.691-6 6-6h92c3.309 0 6 2.691 6 6v11.877c0 1.105-.896 2-2 2zm-98-4h96v-9.877c0-1.103-.897-2-2-2h-92c-1.103 0-2 .897-2 2z" fill="#3762cc"/></svg>